<svg xmlns="http://www.w3.org/2000/svg" enable-background="new 0 0 47.5 47.5" viewBox="0 0 47.5 47.5"><defs><clipPath id="a"><path d="M0 38h38V0H0v38Z"/></clipPath></defs><g clip-path="url(#a)" transform="matrix(1.25 0 0 -1.25 0 47.5)"><path fill="#292f33" d="M0 0s-2 0-2 2v32s0 2 2 2h32.031C34 36 34 34 34 34V2s0-2-2-2H0Z" transform="translate(3 1)"/><path fill="#e1e8ed" d="M0 0s0-1 1-1h5c1 0 1 1 1 1v28H0V0Z" transform="translate(20 4)"/><path fill="#e1e8ed" d="M0 0v-28s0-1 1-1h4c1 0 1 1 1 1V0H0Z" transform="translate(29 32)"/><path fill="#e1e8ed" d="M0 0s0-1 1-1h5c1 0 1 1 1 1v28H0V0Z" transform="translate(11 4)"/><path fill="#e1e8ed" d="M0 0s0-1 1-1h4c1 0 1 1 1 1v28H0V0Z" transform="translate(3 4)"/><path fill="#292f33" d="M0 0s0-1-1-1h-4c-1 0-1 1-1 1v20h6V0z" transform="translate(31 14)"/><path fill="#292f33" d="M0 0s0-1-1-1h-4c-1 0-1 1-1 1v20h6V0z" transform="translate(22 14)"/><path fill="#292f33" d="M0 0s0-1-1-1h-4c-1 0-1 1-1 1v20h6V0z" transform="translate(13 14)"/></g></svg>